<svg version="1.1" xmlns="http://www.w3.org/2000/svg" xmlns:xlink="http://www.w3.org/1999/xlink" width="74.47388" height="74.47388" viewBox="0,0,74.47388,74.47388"><g transform="translate(-282.76306,-142.76306)"><g data-paper-data="{&quot;isPaintingLayer&quot;:true}" fill-rule="nonzero" stroke-linecap="butt" stroke-linejoin="miter" stroke-miterlimit="10" stroke-dasharray="" stroke-dashoffset="0" style="mix-blend-mode: normal"><path d="M285.76306,180c0,-18.90854 15.3284,-34.23694 34.23694,-34.23694c18.90854,0 34.23694,15.3284 34.23694,34.23694c0,18.90854 -15.3284,34.23694 -34.23694,34.23694c-18.90854,0 -34.23694,-15.3284 -34.23694,-34.23694z" fill="#00e0ff" stroke="#ffffff" stroke-width="6"/><g><path d="M316.39754,179.95887l-4.53469,-20.36719l6.45665,2.6455l9.32032,17.72168l-9.19701,18.27622l-6.57996,2.09096z" fill="#00a4ff" stroke="#000000" stroke-width="0"/><path d="M329.16112,180.69242l-4.53469,-20.36719l6.45665,2.6455l9.32033,17.72168l-9.19701,18.27622l-6.57996,2.09096z" fill="#00a4ff" stroke="#000000" stroke-width="0"/><path d="M304.13128,180.27714l-4.53469,-20.36718l6.45665,2.6455l9.32033,17.72168l-9.19701,18.27622l-6.57996,2.09096z" fill="#00a4ff" stroke="#000000" stroke-width="0"/><path d="M326.12602,200.04006l-5.90417,-10.6454l-9.50997,5.9831l-0.41376,-36.43736l25.16575,25.52883l-8.79432,1.95751l5.45693,10.01924c0,0 0.69997,2.38923 -1.49154,3.75548c-2.61693,1.63155 -4.50893,-0.1614 -4.50893,-0.1614z" fill="#00e0ff" stroke="#006aa2" stroke-width="2.5"/></g></g></g></svg>